

<svg width="72" height="72" viewBox="0 0 72 72" fill="none" xmlns="http://www.w3.org/2000/svg">
<symbol id='logo' viewBox="0 0 72 72">

<circle cx="36" cy="36" r="36" fill="#C8C8C8"/>
<g filter="url(#filter0_d)">
<path d="M16.2012 27.4043C20.153 27.1113 22.7311 26.9648 23.9355 26.9648C25.1465 26.9648 26.1003 27.0788 26.7969 27.3066C27.5 27.528 28.1283 27.8372 28.6816 28.2344C29.7559 28.9961 30.5664 30.0085 31.1133 31.2715C31.6667 32.5345 31.9434 33.8138 31.9434 35.1094C31.9434 36.4049 31.7318 37.5378 31.3086 38.5078C30.8919 39.4714 30.3125 40.2852 29.5703 40.9492C28.0534 42.3229 26.0905 43.0065 23.6816 43H16.2012V27.4043ZM22.2754 32.3555V38.3027C22.6204 38.0098 22.9948 37.7201 23.3984 37.4336C24.9479 36.3203 25.7227 35.1549 25.7227 33.9375C25.7227 33.3451 25.5469 32.7982 25.1953 32.2969C24.8438 31.7891 24.3848 31.5352 23.8184 31.5352C23.2585 31.5352 22.7441 31.8086 22.2754 32.3555ZM39.1211 27.4043L40.9082 32.9609L44.8047 27.7363C44.9349 27.5605 45.0326 27.4466 45.0977 27.3945C45.1628 27.3424 45.2604 27.3164 45.3906 27.3164C45.5208 27.3164 45.6868 27.4564 45.8887 27.7363L49.5215 32.9023L51.2793 27.4043H56.8652L51.7676 42.5996C51.5462 43.2507 51.1719 43.5762 50.6445 43.5762C50.1172 43.5762 49.6452 43.2767 49.2285 42.6777L44.8633 36.3789L40.166 42.6973C39.7428 43.2572 39.2708 43.5371 38.75 43.5371C38.2292 43.5371 37.8483 43.2116 37.6074 42.5605L32.1191 27.4043H39.1211Z" fill="white"/>
</g>
<defs>
<filter id="filter0_d" x="12.2012" y="22.9648" width="52.6641" height="28.6113" filterUnits="userSpaceOnUse" color-interpolation-filters="sRGB">
<feFlood flood-opacity="0" result="BackgroundImageFix"/>
<feColorMatrix in="SourceAlpha" type="matrix" values="0 0 0 0 0 0 0 0 0 0 0 0 0 0 0 0 0 0 127 0"/>
<feOffset dx="2" dy="2"/>
<feGaussianBlur stdDeviation="3"/>
<feColorMatrix type="matrix" values="0 0 0 0 0 0 0 0 0 0 0 0 0 0 0 0 0 0 0.25 0"/>
<feBlend mode="normal" in2="BackgroundImageFix" result="effect1_dropShadow"/>
<feBlend mode="normal" in="SourceGraphic" in2="effect1_dropShadow" result="shape"/>
</filter>
</defs>
</symbol >


<symbol id='design' viewBox="0 0 65 65">

<path d="M40.1172 43.9258C39.4165 43.9258 38.8477 44.4946 38.8477 45.1953C38.8477 45.896 39.4165 46.4648 40.1172 46.4648C40.8179 46.4648 41.3867 45.896 41.3867 45.1953C41.3867 44.4946 40.8179 43.9258 40.1172 43.9258Z" fill="#9D9D9D"/>
<path d="M58.6523 0H6.34766C2.84752 0 0 2.84752 0 6.34766V45.1953C0 48.6954 2.84752 51.543 6.34766 51.543H26.1523V57.3828H24.8828C23.1878 57.3828 21.5944 58.0434 20.3948 59.2425C19.1957 60.4421 18.5352 62.0354 18.5352 63.7305C18.5352 64.4317 19.1035 65 19.8047 65H45.1953C45.8965 65 46.4648 64.4317 46.4648 63.7305C46.4648 60.2303 43.6173 57.3828 40.1172 57.3828H38.8477V51.543H58.6523C62.1525 51.543 65 48.6954 65 45.1953V6.34766C65 2.84752 62.1525 0 58.6523 0ZM6.34766 2.53906H58.6523C60.7525 2.53906 62.4609 4.24747 62.4609 6.34766V38.8477H56.6211V9.64844C56.6211 8.94722 56.0528 8.37891 55.3516 8.37891H45.1953C44.4941 8.37891 43.9258 8.94722 43.9258 9.64844V38.8477H37.5712C37.5578 37.5345 37.5236 36.2402 37.469 34.9845C37.2469 29.8141 36.7405 26.3507 36.4772 24.8273C39.0966 22.8987 39.8117 19.3242 38.2104 16.5471L33.8102 8.9259C33.5831 8.53313 33.164 8.29113 32.7108 8.29113C32.257 8.29113 31.838 8.53313 31.6113 8.9259L27.2091 16.5475C25.6996 19.166 26.2347 22.5575 28.6061 24.559C28.3314 26.078 27.7769 29.6654 27.5359 34.982C27.4789 36.2511 27.4427 37.5464 27.4288 38.8477H21.0742V19.8047C21.0742 19.6033 21.0266 19.4199 20.9488 19.2567C20.9453 19.2503 20.9433 19.2433 20.9403 19.2369L15.8622 9.08062C15.647 8.65067 15.2076 8.37891 14.7266 8.37891C14.2455 8.37891 13.8062 8.65067 13.5909 9.08062L8.5128 19.2369C8.50983 19.2433 8.50784 19.2503 8.50487 19.2567C8.42552 19.4213 8.37891 19.6078 8.37891 19.8047V38.8477H2.53906V6.34766C2.53906 4.24747 4.24747 2.53906 6.34766 2.53906ZM46.4648 38.8477V10.918H54.082V13.457H52.8125C52.1113 13.457 51.543 14.0253 51.543 14.7266C51.543 15.4278 52.1113 15.9961 52.8125 15.9961H54.082V19.8047H52.8125C52.1113 19.8047 51.543 20.373 51.543 21.0742C51.543 21.7754 52.1113 22.3438 52.8125 22.3438H54.082V26.1523H52.8125C52.1113 26.1523 51.543 26.7207 51.543 27.4219C51.543 28.1231 52.1113 28.6914 52.8125 28.6914H54.082V33.7695H52.8125C52.1113 33.7695 51.543 34.3378 51.543 35.0391C51.543 35.7403 52.1113 36.3086 52.8125 36.3086H54.082V38.8477H46.4648ZM32.7108 26.0646C33.172 26.0646 33.6312 26.0115 34.0805 25.9123C34.316 27.4224 34.6622 30.0943 34.867 33.7695H30.1414C30.3562 30.0968 30.7187 27.3832 30.9691 25.8221C31.5315 25.9822 32.1172 26.0646 32.7108 26.0646ZM32.7108 23.5255C29.8092 23.5255 27.9381 20.3675 29.4085 17.8166L32.7108 12.0997L36.011 17.8161C37.476 20.3566 35.6307 23.5255 32.7108 23.5255ZM30.0249 36.3086H34.9786C35.0053 37.1427 35.0237 37.9912 35.0326 38.8477H29.9679C29.9773 37.9967 29.9966 37.1482 30.0249 36.3086ZM15.9961 38.8477V21.0742H18.5352V38.8477H15.9961ZM10.918 38.8477V21.0742H13.457V38.8477H10.918ZM11.7025 18.5352L14.7266 12.487L17.7506 18.5352H11.7025ZM43.7081 62.4609H21.2904C21.4769 61.9318 21.7814 61.4468 22.19 61.0377C22.9101 60.3181 23.8662 59.9219 24.8828 59.9219H40.1172C41.7725 59.9219 43.1844 60.9831 43.7081 62.4609ZM36.3086 57.3828H28.6914V51.543H36.3086V57.3828ZM58.6523 49.0039H6.34766C4.24747 49.0039 2.53906 47.2955 2.53906 45.1953V41.3867H62.4609V45.1953C62.4609 47.2955 60.7525 49.0039 58.6523 49.0039Z" fill="#9D9D9D"/>
<path d="M35.0391 43.9258H27.4219C26.7207 43.9258 26.1523 44.4941 26.1523 45.1953C26.1523 45.8965 26.7207 46.4648 27.4219 46.4648H35.0391C35.7403 46.4648 36.3086 45.8965 36.3086 45.1953C36.3086 44.4941 35.7403 43.9258 35.0391 43.9258Z" fill="#9D9D9D"/>
</symbol>


<symbol id='man' viewBox="0 0 59 65">
<path d="M58.2836 61.6717L55.4081 44.8373C55.0982 43.0235 53.8115 41.5665 52.0498 41.0351L44.294 38.6949C44.1334 36.799 43.356 35.0104 42.0624 33.5946C41.0276 32.4622 39.7261 31.6376 38.2914 31.1826C38.5369 30.9102 38.7645 30.6386 38.9734 30.373C40.8177 28.0273 41.8052 25.4431 42.0565 23.6796H42.6549C44.2111 23.6796 45.4772 22.4136 45.4772 20.8573V19.4105C45.4772 18.3719 44.8929 17.4308 44.0143 16.9424V13.4634C44.0143 12.9377 43.5881 12.5115 43.0624 12.5115C42.5367 12.5115 42.1106 12.9375 42.1106 13.4634V17.369C41.7399 17.4333 41.2976 17.5445 40.8451 17.7351C40.7988 17.752 40.7537 17.7715 40.7111 17.795C40.6089 17.8416 40.5066 17.8907 40.4046 17.9461V10.2753C40.4046 8.1561 38.6806 6.43208 36.5614 6.43208H33.9341C33.0279 6.43208 32.1426 6.74781 31.4411 7.32139L31.1833 7.53213C30.7097 7.91934 30.112 8.13262 29.5002 8.13262C28.8885 8.13262 28.2906 7.91934 27.8171 7.53213L27.5594 7.32139C26.8578 6.74794 25.9726 6.43208 25.0664 6.43208H22.4389C20.3196 6.43208 18.5956 8.1561 18.5956 10.2753V17.9461C18.4937 17.8907 18.3913 17.8416 18.2891 17.795C18.2465 17.7715 18.2015 17.752 18.1552 17.7351C17.7027 17.5445 17.2603 17.4333 16.8897 17.369V7.49341C16.8897 4.41124 19.3973 1.90366 22.4795 1.90366H36.5206C39.6029 1.90366 42.1104 4.41124 42.1104 7.49341V8.98968C42.1104 9.51539 42.5365 9.94157 43.0621 9.94157C43.5877 9.94157 44.014 9.51552 44.014 8.98968V7.49341C44.014 3.36159 40.6524 0 36.5206 0H22.4795C18.3475 0 14.9861 3.36159 14.9861 7.49341V16.9425C14.1074 17.4309 13.5232 18.3719 13.5232 19.4106V20.8574C13.5232 22.4137 14.7893 23.6797 16.3455 23.6797H16.9438C17.1951 25.4432 18.1826 28.0274 20.027 30.3732C20.2356 30.6385 20.4631 30.9098 20.7084 31.182C17.4101 32.2296 15.0049 35.195 14.7064 38.6949L6.95032 41.0351C5.18859 41.5665 3.90179 43.0235 3.59203 44.8373L2.42431 51.6736C2.33582 52.1918 2.68418 52.6835 3.20228 52.772C3.72025 52.8607 4.21219 52.5123 4.30081 51.994L5.46852 45.1577C5.6559 44.0604 6.43438 43.179 7.50015 42.8576L14.6736 40.6932V42.576C13.0293 42.8787 11.6302 44.0082 11.054 45.5731C10.901 45.9885 10.8059 46.4235 10.7714 46.8658L10.0781 55.7645C10.0258 56.4349 10.2577 57.1024 10.7141 57.5956C11.1705 58.0889 11.8178 58.372 12.49 58.372H13.6768C14.2025 58.372 14.6287 57.946 14.6287 57.4201C14.6287 56.8943 14.2025 56.4684 13.6768 56.4684H12.49C12.3467 56.4684 12.2088 56.4082 12.1115 56.3028C12.0142 56.1977 11.9648 56.0555 11.976 55.9127L12.6693 47.0138C12.6902 46.7458 12.7478 46.4824 12.8404 46.2309C13.2414 45.1422 14.324 44.405 15.5348 44.3965L15.6915 44.3954C15.6989 44.3953 15.7061 44.3953 15.7134 44.3953C16.8901 44.3953 17.9318 45.0625 18.3711 46.0999C18.4944 46.3907 18.5693 46.6982 18.5939 47.0138L19.2875 55.9128C19.2985 56.0555 19.2492 56.1977 19.1519 56.3029C19.0547 56.4081 18.9167 56.4684 18.7733 56.4684H17.5866C17.0609 56.4684 16.6347 56.8944 16.6347 57.4201C16.6347 57.9459 17.0609 58.372 17.5866 58.372H18.7733C19.4456 58.372 20.093 58.0891 20.5493 57.5956C21.0058 57.1021 21.2377 56.4347 21.1854 55.7647L20.4919 46.8658C20.4513 46.345 20.3275 45.8373 20.124 45.357C19.497 43.8772 18.1562 42.8482 16.5772 42.5698V40.1188L19.8493 39.1315C20.147 39.7585 20.7369 41.1135 21.9055 44.0343C23.0833 46.9814 24.5472 50.7589 25.9511 54.4312C25.9612 54.462 25.9727 54.4921 25.9857 54.5215C26.9226 56.9731 27.8314 59.3743 28.6088 61.4457C28.7482 61.8172 29.1033 62.0632 29.5 62.0632C29.8967 62.0632 30.2518 61.8172 30.3912 61.4457C31.1684 59.3743 32.0773 56.9731 33.0143 54.5215C33.0274 54.4921 33.0388 54.4619 33.0488 54.4312C34.4518 50.7611 35.9149 46.986 37.0922 44.0398C38.2623 41.1152 38.8527 39.7591 39.1506 39.1315L42.4227 40.1188V45.741C40.1555 46.1814 38.4382 48.1809 38.4382 50.575C38.4382 53.2906 40.6476 55.5001 43.3634 55.5001C46.0792 55.5001 48.2885 53.2907 48.2885 50.575C48.2885 48.1887 46.5825 46.194 44.3263 45.745V40.6933L51.4999 42.8577C52.5657 43.1792 53.3441 44.0605 53.5316 45.1579L56.4071 61.9922C56.4548 62.2714 56.3805 62.5443 56.1978 62.7608C56.0153 62.9771 55.7587 63.0965 55.4755 63.0965H3.52449C3.24125 63.0965 2.98481 62.9773 2.80212 62.7608C2.61956 62.5443 2.54517 62.2715 2.5929 61.9922L3.54188 56.4365C3.63037 55.9183 3.28201 55.4266 2.76391 55.3381C2.24594 55.2492 1.754 55.598 1.66539 56.1161L0.716411 61.6718C0.574858 62.5011 0.80477 63.3454 1.34711 63.9884C1.88971 64.6313 2.6833 65 3.52449 65H55.4755C56.3167 65 57.1104 64.6313 57.6529 63.9883C58.1952 63.3453 58.4251 62.5009 58.2836 61.6717ZM42.1218 19.3082C42.629 19.1817 43.0361 19.184 43.0407 19.1841C43.2047 19.1863 43.3642 19.148 43.5058 19.0737C43.5482 19.1792 43.5732 19.2926 43.5732 19.4106V20.8574C43.5732 21.3639 43.1612 21.776 42.6546 21.776H42.1218V19.3082ZM16.8782 21.776H16.3454C15.8388 21.776 15.4267 21.3639 15.4267 20.8574V19.4106C15.4267 19.2926 15.4519 19.1792 15.4941 19.0738C15.6357 19.1481 15.7951 19.1864 15.9593 19.1841C15.9665 19.1854 16.3725 19.1831 16.8782 19.3087V21.776ZM18.7818 22.8433V20.3426C19.0703 20.429 19.3858 20.4172 19.677 20.2957C20.1765 20.0873 20.4993 19.6032 20.4993 19.0623V10.2753C20.4993 9.20588 21.3694 8.33574 22.4389 8.33574H25.0661C25.5343 8.33574 25.9918 8.49888 26.3542 8.79519L26.6119 9.00593C27.4246 9.6704 28.4502 10.0362 29.5 10.0362C30.5498 10.0362 31.5754 9.67027 32.388 9.00593L32.6458 8.79519C33.0081 8.49888 33.4656 8.33574 33.9338 8.33574H36.5611C37.6306 8.33574 38.5007 9.20588 38.5007 10.2753V19.0624C38.5007 19.6032 38.8234 20.0874 39.323 20.2959C39.4898 20.3654 39.6645 20.3992 39.8376 20.3992C39.9668 20.3992 40.0949 20.3803 40.2181 20.3435V22.8433C40.2181 24.2331 39.2573 26.9318 37.4767 29.1964C36.8869 29.9466 36.1287 30.7525 35.1952 31.4568C35.1656 31.4766 35.1373 31.4981 35.1103 31.5209C33.6642 32.5901 31.8047 33.4092 29.5 33.4092C27.1953 33.4092 25.3358 32.5901 23.8895 31.5208C23.8625 31.4981 23.8343 31.4766 23.8049 31.457C22.8714 30.7525 22.1132 29.9466 21.5233 29.1964C19.7427 26.932 18.7818 24.2331 18.7818 22.8433ZM35.7359 38.2218L29.5 42.8827L23.264 38.2218C23.8824 37.4358 24.2289 36.4269 24.2289 35.5266V33.9922C25.6953 34.7808 27.4451 35.313 29.5 35.313C31.5548 35.313 33.3048 34.7808 34.7711 33.9922V35.5266C34.7711 36.4269 35.1175 37.4358 35.7359 38.2218ZM21.6755 37.1593C21.1672 36.9657 20.6036 36.934 20.0705 37.0786C20.0472 37.084 20.0243 37.0902 20.0021 37.0968L16.7136 38.0891C17.2698 35.3543 19.4905 33.1775 22.3252 32.7559V35.5266C22.3252 36.1237 22.0586 36.7411 21.6755 37.1593ZM24.2589 44.8004C24.2571 44.7959 24.2553 44.7915 24.2536 44.7872C24.2054 44.6652 24.1578 44.5448 24.1106 44.4258C24.1021 44.4043 24.0936 44.3828 24.0851 44.3615C24.0388 44.2451 23.993 44.1295 23.9478 44.0159C23.9446 44.0079 23.9415 44 23.9383 43.9919C23.7973 43.6373 23.6613 43.2972 23.5305 42.9713C23.521 42.9477 23.5115 42.9237 23.502 42.9003C23.4644 42.8068 23.4274 42.7148 23.3907 42.6239C23.3773 42.5905 23.364 42.5575 23.3506 42.5245C23.3151 42.4364 23.2798 42.3488 23.245 42.2631C23.2346 42.2374 23.2244 42.2125 23.2142 42.187C23.1511 42.0314 23.0894 41.8797 23.0292 41.7318C23.0129 41.6918 22.9963 41.651 22.9802 41.6116C22.9566 41.5539 22.9336 41.4978 22.9105 41.4413C22.8856 41.3804 22.8607 41.3199 22.8363 41.2605C22.8272 41.2383 22.8177 41.2148 22.8085 41.1927C22.8012 41.175 22.7944 41.1586 22.7872 41.1409C22.6773 40.8738 22.5728 40.6221 22.4736 40.3853C22.4729 40.3834 22.472 40.3815 22.4712 40.3796C22.4184 40.2535 22.3667 40.1304 22.3171 40.0131C22.2913 39.9523 22.2659 39.8925 22.2411 39.8338L27.6042 43.8422L25.3632 44.7943C25.3593 44.7959 25.3552 44.7976 25.3513 44.7993L24.4156 45.1968C24.3626 45.0626 24.3106 44.9311 24.2589 44.8004ZM26.53 50.6285C26.342 50.1406 26.1526 49.65 25.9628 49.1598C25.666 48.3931 25.3825 47.6642 25.1112 46.9697L25.4664 46.8188L26.9178 48.5059L26.53 50.6285ZM29.5184 58.3648C29.4911 58.3082 29.4586 58.2547 29.421 58.205C28.9909 57.0681 28.445 55.6296 27.8408 54.0469L28.7295 49.1814H30.2705L31.1591 54.0469C30.526 55.705 29.9574 57.2043 29.5184 58.3648ZM30.6275 47.2779H28.3725L27.3055 46.0375L29.5 45.1053L31.6945 46.0375L30.6275 47.2779ZM33.0372 49.1598C32.8474 49.65 32.6579 50.1406 32.4699 50.6285L32.0822 48.5057L33.5335 46.8187L33.8888 46.9696C33.6175 47.664 33.334 48.3931 33.0372 49.1598ZM36.683 40.0131C36.6359 40.1243 36.5869 40.241 36.537 40.36C36.5305 40.3755 36.5239 40.3912 36.5174 40.4068C36.4681 40.5248 36.4178 40.6454 36.3657 40.771C36.3623 40.7792 36.3588 40.788 36.3553 40.7964C36.3104 40.9047 36.2643 41.0164 36.2175 41.1303C36.2087 41.1516 36.2004 41.1713 36.1917 41.1927C36.1813 41.2183 36.1701 41.2453 36.1596 41.2711C36.1387 41.3218 36.1175 41.3736 36.0962 41.4254C36.0701 41.4893 36.044 41.5529 36.0173 41.6183C36.0087 41.6391 36 41.6608 35.9913 41.6818C35.9251 41.8441 35.857 42.0115 35.7875 42.1833C35.7765 42.2103 35.7658 42.2367 35.7548 42.264C35.7204 42.3489 35.6854 42.4356 35.6502 42.5228C35.6365 42.557 35.6227 42.591 35.6088 42.6255C35.5725 42.7155 35.5358 42.8067 35.4988 42.8991C35.4884 42.9249 35.4778 42.9513 35.4674 42.9772C35.3383 43.2986 35.2044 43.6339 35.0654 43.9833C35.0608 43.9948 35.0562 44.0061 35.0516 44.0178C35.0067 44.1307 34.9613 44.2454 34.9153 44.3611C34.9068 44.3827 34.8982 44.4043 34.8895 44.426C34.842 44.5456 34.7942 44.6664 34.7457 44.7892C34.7448 44.7915 34.7439 44.7938 34.743 44.7959C34.6907 44.9282 34.6382 45.0613 34.5846 45.1971L33.6481 44.7992C33.6447 44.7978 33.6414 44.7964 33.6383 44.795L31.396 43.8425L36.7592 39.8341C36.734 39.8925 36.7086 39.9521 36.683 40.0131ZM38.9979 37.097C38.9977 37.097 38.9975 37.0968 38.9973 37.0968C38.9966 37.0966 38.9957 37.0965 38.9949 37.0961C38.4427 36.9304 37.8536 36.9578 37.3246 37.1593C36.9413 36.7411 36.6749 36.1237 36.6749 35.5266V32.7545C39.5274 33.175 41.7413 35.3313 42.2903 38.0903L38.9979 37.097ZM46.3849 50.575C46.3849 52.2411 45.0294 53.5964 43.3634 53.5964C41.6974 53.5964 40.3419 52.2411 40.3419 50.575C40.3419 48.9088 41.6974 47.5535 43.3634 47.5535C45.0294 47.5535 46.3849 48.9088 46.3849 50.575Z" fill="#9D9D9D"/>
</symbol>


<symbol id='packaging' viewBox="0 0 65 65">
<path d="M57.1466 24.1212L64.6279 16.64C64.9426 16.3253 65.0694 15.8687 64.9624 15.4369C64.8554 15.0048 64.5298 14.6605 64.1046 14.5293L45.8868 8.90651C44.2445 3.62768 39.3634 0.000244141 33.769 0.000244141C28.5685 0.000244141 23.9174 3.16963 21.9924 7.95068L0.891034 14.5304C0.466884 14.6627 0.142646 15.0072 0.036386 15.4388C-0.0698738 15.8701 0.0570793 16.3259 0.371288 16.6401L8.04929 24.3181L3.20679 32.3892C3.00861 32.7194 2.97116 33.1217 3.10472 33.4829C3.23827 33.844 3.52861 34.125 3.89398 34.2467L10.9174 36.5877V56.1134C10.9174 56.6425 11.2457 57.1162 11.7412 57.3021C16.0357 58.9123 31.9918 64.8966 32.0774 64.927C32.3293 65.0157 32.6131 65.0278 32.8897 64.9383C32.8934 64.937 32.8972 64.9362 32.9009 64.935L55.7524 57.3178C56.2708 57.145 56.6205 56.6598 56.6205 56.1134V36.065L64.1105 33.7112C64.534 33.5782 64.8573 33.2336 64.963 32.8025C65.0686 32.3714 64.9416 31.9164 64.6277 31.6024L57.1466 24.1212ZM46.4643 12.6956C46.4643 12.373 46.4507 12.0511 46.4265 11.7303L61.3427 16.3343L55.0081 22.6687L44.6579 19.219C45.8299 17.26 46.4643 14.9995 46.4643 12.6956ZM24.1621 9.39122C25.5714 5.29292 29.4321 2.53931 33.769 2.53931C38.441 2.53931 42.4931 5.69942 43.6228 10.224C43.8235 11.028 43.9252 11.8596 43.9252 12.6956C43.9252 15.0536 43.1427 17.2637 41.6619 19.0879C39.7224 21.4799 36.8456 22.8518 33.769 22.8518C30.4433 22.8518 27.3239 21.2194 25.424 18.4841C24.2391 16.7822 23.6127 14.7804 23.6127 12.6956C23.6127 11.5617 23.7974 10.45 24.1621 9.39122ZM3.65125 16.3293L21.2089 10.8546C21.1208 11.4612 21.0737 12.0756 21.0737 12.6954C21.0737 14.7395 21.5579 16.7193 22.4808 18.5057L9.99078 22.6687L3.65125 16.3293ZM6.19831 32.3384L10.2126 25.6477L30.5965 32.4424L26.5824 39.133C24.4058 38.4075 8.52231 33.1129 6.19831 32.3384ZM31.2299 61.8988L13.4565 55.2337V37.4341C27.4404 42.0707 26.7575 41.9292 27.1468 41.9292C27.5833 41.9292 28.0012 41.7033 28.2357 41.3127L31.2299 36.322V61.8988ZM32.4994 30.4003L13.6626 24.1215L23.9197 20.7026C26.3204 23.6539 29.9344 25.3909 33.769 25.3909C37.3163 25.3909 40.6502 23.931 43.0482 21.359L51.3362 24.1213L32.4994 30.4003ZM54.0815 55.1984L33.769 61.9692V35.3573L38.2696 40.9826C38.597 41.3918 39.142 41.5576 39.6416 41.4007L54.0815 36.863V55.1984ZM39.7094 38.718L34.6282 32.3671L55.0081 25.5738L61.3512 31.9169L39.7094 38.718Z" fill="#9D9D9D"/>
</symbol>

<symbol id='content' viewBox="0 0 65 65">
<path d="M59.2871 0.126953H5.71289C2.5628 0.126953 0 2.68976 0 5.83984V51.543C0 54.6931 2.5628 57.2559 5.71289 57.2559H38.2129V62.9688C38.2129 64.0204 39.0655 64.873 40.1172 64.873C41.1689 64.873 42.0215 64.0204 42.0215 62.9688V43.9258H45.957V62.9688C45.957 64.0204 46.8096 64.873 47.8613 64.873C48.913 64.873 49.7656 64.0204 49.7656 62.9688V43.9258H53.4473V62.9688C53.4473 64.0204 54.2999 64.873 55.3516 64.873C56.4032 64.873 57.2559 64.0204 57.2559 62.9688V57.2559H59.2871C62.4372 57.2559 65 54.6931 65 51.543V5.83984C65 2.68976 62.4372 0.126953 59.2871 0.126953ZM5.71289 3.93555H59.2871C60.3371 3.93555 61.1914 4.78981 61.1914 5.83984V15.3613H3.80859V5.83984C3.80859 4.78981 4.66286 3.93555 5.71289 3.93555ZM43.6754 40.1172L47.7344 34.0288L51.7933 40.1172H43.6754ZM59.2871 53.4473H57.2559V42.0215C57.2559 41.6456 57.1446 41.278 56.9361 40.9652L49.3189 29.5395C48.5674 28.4122 46.9042 28.4079 46.1499 29.5395L38.5327 40.9652C38.3241 41.278 38.2129 41.6456 38.2129 42.0215V53.4473H5.71289C4.66286 53.4473 3.80859 52.593 3.80859 51.543V19.1699H61.1914V51.543C61.1914 52.593 60.3371 53.4473 59.2871 53.4473Z" fill="#9D9D9D"/>
<path d="M24.8828 38.2129H9.64844C8.59676 38.2129 7.74414 39.0655 7.74414 40.1172V47.7344C7.74414 48.7861 8.59676 49.6387 9.64844 49.6387H24.8828C25.9345 49.6387 26.7871 48.7861 26.7871 47.7344V40.1172C26.7871 39.0655 25.9345 38.2129 24.8828 38.2129ZM22.9785 45.8301H11.5527V42.0215H22.9785V45.8301Z" fill="#9D9D9D"/>
<path d="M43.9258 22.9785H9.64844C8.59676 22.9785 7.74414 23.8311 7.74414 24.8828C7.74414 25.9345 8.59676 26.7871 9.64844 26.7871H43.9258C44.9775 26.7871 45.8301 25.9345 45.8301 24.8828C45.8301 23.8311 44.9775 22.9785 43.9258 22.9785Z" fill="#9D9D9D"/>
<path d="M36.3086 30.5957H9.64844C8.59676 30.5957 7.74414 31.4483 7.74414 32.5C7.74414 33.5517 8.59676 34.4043 9.64844 34.4043H36.3086C37.3603 34.4043 38.2129 33.5517 38.2129 32.5C38.2129 31.4483 37.3603 30.5957 36.3086 30.5957Z" fill="#9D9D9D"/>
<path d="M9.64844 11.5527C10.7002 11.5527 11.5527 10.7002 11.5527 9.64844C11.5527 8.59672 10.7002 7.74414 9.64844 7.74414C8.59672 7.74414 7.74414 8.59672 7.74414 9.64844C7.74414 10.7002 8.59672 11.5527 9.64844 11.5527Z" fill="#9D9D9D"/>
<path d="M17.2656 11.5527C18.3173 11.5527 19.1699 10.7002 19.1699 9.64844C19.1699 8.59672 18.3173 7.74414 17.2656 7.74414C16.2139 7.74414 15.3613 8.59672 15.3613 9.64844C15.3613 10.7002 16.2139 11.5527 17.2656 11.5527Z" fill="#9D9D9D"/>
<path d="M24.8828 11.5527C25.9345 11.5527 26.7871 10.7002 26.7871 9.64844C26.7871 8.59672 25.9345 7.74414 24.8828 7.74414C23.8311 7.74414 22.9785 8.59672 22.9785 9.64844C22.9785 10.7002 23.8311 11.5527 24.8828 11.5527Z" fill="#9D9D9D"/>
<path d="M43.9258 11.5527H55.3516C56.4032 11.5527 57.2559 10.7001 57.2559 9.64844C57.2559 8.59676 56.4032 7.74414 55.3516 7.74414H43.9258C42.8741 7.74414 42.0215 8.59676 42.0215 9.64844C42.0215 10.7001 42.8741 11.5527 43.9258 11.5527Z" fill="#9D9D9D"/>
</symbol>

<symbol id="right" viewBox="0 0 56 56" >
<circle cx="28" cy="28" r="28" fill="#EEEEEE"/>
<path d="M25.5896 20.6953L23.873 22.4118L29.4487 27.9997L23.873 33.5875L25.5896 35.304L32.8939 27.9997L25.5896 20.6953Z" fill="#B7B7B7"/>
</symbol>

<symbol viewBox="0 0 53 34" id="dwlogo">
<path d="M4.20117 8.4043C8.15299 8.11133 10.7311 7.96484 11.9355 7.96484C13.1465 7.96484 14.1003 8.07878 14.7969 8.30664C15.5 8.52799 16.1283 8.83724 16.6816 9.23438C17.7559 9.99609 18.5664 11.0085 19.1133 12.2715C19.6667 13.5345 19.9434 14.8138 19.9434 16.1094C19.9434 17.4049 19.7318 18.5378 19.3086 19.5078C18.8919 20.4714 18.3125 21.2852 17.5703 21.9492C16.0534 23.3229 14.0905 24.0065 11.6816 24H4.20117V8.4043ZM10.2754 13.3555V19.3027C10.6204 19.0098 10.9948 18.7201 11.3984 18.4336C12.9479 17.3203 13.7227 16.1549 13.7227 14.9375C13.7227 14.3451 13.5469 13.7982 13.1953 13.2969C12.8438 12.7891 12.3848 12.5352 11.8184 12.5352C11.2585 12.5352 10.7441 12.8086 10.2754 13.3555ZM27.1211 8.4043L28.9082 13.9609L32.8047 8.73633C32.9349 8.56055 33.0326 8.44661 33.0977 8.39453C33.1628 8.34245 33.2604 8.31641 33.3906 8.31641C33.5208 8.31641 33.6868 8.45638 33.8887 8.73633L37.5215 13.9023L39.2793 8.4043H44.8652L39.7676 23.5996C39.5462 24.2507 39.1719 24.5762 38.6445 24.5762C38.1172 24.5762 37.6452 24.2767 37.2285 23.6777L32.8633 17.3789L28.166 23.6973C27.7428 24.2572 27.2708 24.5371 26.75 24.5371C26.2292 24.5371 25.8483 24.2116 25.6074 23.5605L20.1191 8.4043H27.1211Z" fill="white"/>
</symbol>

<symbol id="icon-cheveron-outline-up" viewBox="0 0 20 20">
<path d="M0 10c0-5.523 4.477-10 10-10s10 4.477 10 10v0c0 5.523-4.477 10-10 10s-10-4.477-10-10v0zM10 18c4.418 0 8-3.582 8-8s-3.582-8-8-8v0c-4.418 0-8 3.582-8 8s3.582 8 8 8v0zM10.7 7.46l3.55 3.54-1.41 1.41-2.84-2.81-2.83 2.8-1.41-1.4 4.24-4.24 0.7 0.7z "></path>
</symbol>
</svg>
