<svg  xmlns="http://www.w3.org/2000/svg" style="display: none" width="54px" height="72px">
<symbol id='logo' viewBox="0 0 54 72">
<path fill-rule="evenodd"  fill="rgb(246, 246, 246)"
 d="M29.713,52.981 C29.206,58.539 28.173,63.425 26.295,67.697 C25.672,69.114 24.538,70.464 24.15,71.999 C23.940,71.999 23.864,71.999 23.788,71.999 C23.788,71.622 23.788,71.244 23.788,70.867 C24.215,70.202 24.6,69.293 24.243,68.377 C25.371,64.20 25.456,58.207 23.560,54.566 C20.320,48.344 13.832,50.437 7.378,47.773 C4.851,46.730 2.994,44.583 1.680,42.339 C1.224,41.56 0.769,39.773 0.313,38.490 C0.403,35.784 0.251,32.291 0.997,30.339 C4.104,22.208 11.868,18.630 21.281,23.94 C21.281,22.867 21.281,22.641 21.281,22.414 C20.473,21.318 20.735,19.682 20.369,18.113 C19.384,13.893 18.624,0.46 23.332,0.0 C24.608,0.926 27.62,0.884 27.206,2.943 C26.830,3.348 26.808,3.511 26.750,4.301 C26.826,4.301 26.902,4.301 26.978,4.301 C26.978,4.226 26.978,4.150 26.978,4.75 C27.959,3.44 28.228,0.704 29.941,0.452 C31.309,1.672 33.625,1.915 34.44,4.75 C32.901,5.521 31.775,8.49 31.309,9.962 C31.461,9.962 31.613,9.962 31.764,9.962 C33.192,8.84 39.76,2.711 41.793,3.169 C42.596,4.461 43.426,5.737 43.844,7.471 C42.409,7.981 41.748,9.367 40.653,10.188 C36.653,13.188 33.421,17.562 30.853,21.961 C31.81,21.961 31.309,21.961 31.537,21.961 C33.105,20.741 39.509,20.150 42.248,20.829 C49.471,22.621 51.500,25.100 53.188,32.377 C53.423,33.388 53.731,35.768 53.416,37.132 C51.233,46.573 46.626,51.341 37.6,53.433 C34.436,53.992 31.873,53.96 29.713,52.981 Z"/>
 </symbol>

 


 <symbol id='linkedin' viewBox="0 0 32 32">
<defs>
<filter id="Filter_0">
    <feFlood flood-color="rgb(235, 235, 235)" flood-opacity="1" result="floodOut" />
    <feComposite operator="atop" in="floodOut" in2="SourceGraphic" result="compOut" />
    <feBlend mode="normal" in="compOut" in2="SourceGraphic" />
</filter>
</defs>
<g filter="url(#Filter_0)">
<path fill-rule="evenodd"  fill="rgb(255, 255, 255)"
 d="M16.0,31.999 C7.163,31.999 0.0,24.836 0.0,15.999 C0.0,7.163 7.163,0.0 16.0,0.0 C24.836,0.0 32.0,7.163 32.0,15.999 C32.0,24.836 24.836,31.999 16.0,31.999 ZM9.788,7.468 C9.467,7.156 9.82,6.999 8.633,6.999 C8.185,6.999 7.802,7.153 7.484,7.459 C7.166,7.765 7.7,8.135 7.7,8.568 C7.7,9.18 7.167,9.401 7.488,9.717 C7.809,10.32 8.197,10.190 8.652,10.190 C9.95,10.190 9.475,10.35 9.792,9.726 C10.110,9.416 10.269,9.42 10.269,8.603 C10.269,8.159 10.109,7.780 9.788,7.468 ZM10.274,10.993 L7.0,10.993 L7.0,22.999 L10.274,22.999 L10.274,10.993 ZM25.0,15.437 C25.0,14.17 24.510,12.944 23.648,12.219 C22.624,11.364 21.613,10.938 20.144,10.938 C19.428,10.938 18.963,11.53 18.279,11.284 C17.594,11.516 16.848,12.2 16.4,12.593 L16.4,10.993 L12.730,10.993 L12.730,22.999 L15.987,22.997 L15.987,18.640 C15.987,17.357 16.42,16.523 16.150,16.138 C16.359,15.398 16.732,14.819 17.271,14.400 C17.810,13.980 18.456,13.771 19.208,13.771 C19.788,13.771 20.274,13.897 20.668,14.151 C21.63,14.404 21.339,14.771 21.497,15.255 C21.656,15.738 21.735,16.715 21.735,18.187 L21.735,22.997 L25.0,22.997 L25.0,15.437 Z"/>
</g>
</symbol>



<symbol id='facebook' viewBox="0 0 32 32">
<defs>
<filter id="Filter_0">
    <feFlood flood-color="rgb(235, 235, 235)" flood-opacity="1" result="floodOut" />
    <feComposite operator="atop" in="floodOut" in2="SourceGraphic" result="compOut" />
    <feBlend mode="normal" in="compOut" in2="SourceGraphic" />
</filter>
</defs>
<g filter="url(#Filter_0)">
<path fill-rule="evenodd"  fill="rgb(255, 255, 255)"
 d="M16.0,31.999 C7.163,31.999 0.0,24.836 0.0,15.999 C0.0,7.163 7.163,0.0 16.0,0.0 C24.836,0.0 32.0,7.163 32.0,15.999 C32.0,24.836 24.836,31.999 16.0,31.999 ZM20.0,9.999 L22.0,9.999 L22.0,5.999 C22.0,5.999 22.0,5.999 18.125,5.999 C14.251,5.999 15.0,9.999 15.0,9.999 L15.0,13.0 L13.0,13.0 L13.0,17.0 L15.0,17.0 L15.0,26.0 L19.0,26.0 L19.0,17.0 L21.0,17.0 L22.0,13.0 L19.0,13.0 C19.0,13.0 19.0,11.820 19.0,10.999 C19.0,10.178 20.0,9.999 20.0,9.999 Z"/>
</g>
</symbol>


<symbol id='twitter' viewBox="0 0 32 32">
<defs>
<filter id="Filter_0">
    <feFlood flood-color="rgb(235, 235, 235)" flood-opacity="1" result="floodOut" />
    <feComposite operator="atop" in="floodOut" in2="SourceGraphic" result="compOut" />
    <feBlend mode="normal" in="compOut" in2="SourceGraphic" />
</filter>
</defs>
<g filter="url(#Filter_0)">
<path fill-rule="evenodd"  fill="rgb(255, 255, 255)"
 d="M16.0,31.999 C7.163,31.999 0.0,24.836 0.0,15.999 C0.0,7.163 7.163,0.0 16.0,0.0 C24.836,0.0 32.0,7.163 32.0,15.999 C32.0,24.836 24.836,31.999 16.0,31.999 ZM25.399,8.606 C24.685,9.68 23.895,9.405 23.54,9.586 C22.380,8.801 21.420,8.310 20.358,8.310 C18.318,8.310 16.665,10.119 16.665,12.349 C16.665,12.666 16.697,12.974 16.760,13.270 C13.691,13.102 10.969,11.493 9.148,9.50 C8.830,9.646 8.648,10.340 8.648,11.80 C8.648,12.482 9.300,13.718 10.291,14.443 C9.686,14.422 9.116,14.240 8.618,13.938 C8.618,13.954 8.618,13.971 8.618,13.988 C8.618,15.945 9.891,17.578 11.580,17.950 C11.270,18.42 10.944,18.91 10.607,18.91 C10.369,18.91 10.138,18.66 9.913,18.18 C10.382,19.623 11.746,20.791 13.363,20.824 C12.99,21.907 10.506,22.553 8.776,22.553 C8.478,22.553 8.184,22.534 7.895,22.497 C9.529,23.643 11.470,24.311 13.556,24.311 C20.349,24.311 24.64,18.156 24.64,12.818 C24.64,12.643 24.60,12.469 24.53,12.295 C24.775,11.726 25.401,11.15 25.896,10.204 C25.234,10.525 24.522,10.743 23.775,10.840 C24.538,10.340 25.123,9.549 25.399,8.606 Z"/>
</g>
</symbol>


<symbol id='behance' viewBox="0 0 32 32">
<defs>
<filter id="Filter_0">
    <feFlood flood-color="rgb(235, 235, 235)" flood-opacity="1" result="floodOut" />
    <feComposite operator="atop" in="floodOut" in2="SourceGraphic" result="compOut" />
    <feBlend mode="normal" in="compOut" in2="SourceGraphic" />
</filter>
</defs>
<g filter="url(#Filter_0)">
<path fill-rule="evenodd"  fill="rgb(255, 255, 255)"
 d="M16.0,31.999 C7.163,31.999 0.0,24.836 0.0,15.999 C0.0,7.163 7.163,0.0 16.0,0.0 C24.836,0.0 32.0,7.163 32.0,15.999 C32.0,24.836 24.836,31.999 16.0,31.999 ZM14.49,15.414 C15.119,14.922 15.722,14.120 15.722,12.972 C15.722,10.794 14.136,9.999 11.792,9.999 L6.0,9.999 L6.0,21.771 L11.964,21.771 C14.187,21.771 16.308,20.754 16.308,18.378 C16.308,16.921 15.550,15.824 14.49,15.414 ZM24.155,10.790 L19.223,10.790 L19.223,12.363 L24.155,12.363 L24.155,10.790 ZM21.501,13.71 C18.795,13.71 16.925,15.4 16.925,17.544 C16.925,20.165 18.691,22.0 21.501,22.0 C23.519,22.0 25.87,20.951 25.776,18.952 L23.622,18.952 C23.467,19.477 22.570,20.247 21.586,20.247 C20.225,20.247 19.467,19.304 19.399,17.830 L25.828,17.830 C26.0,15.225 24.534,13.71 21.501,13.71 ZM21.432,14.825 C22.621,14.825 23.156,15.128 23.380,16.306 L19.399,16.306 C19.432,15.652 19.881,14.825 21.432,14.825 ZM11.602,19.869 L8.474,19.869 L8.474,16.658 L11.654,16.658 C12.809,16.658 13.523,17.133 13.523,18.329 C13.523,19.542 12.671,19.869 11.602,19.869 ZM11.447,14.709 L8.474,14.709 L8.474,11.973 L11.240,11.973 C12.205,11.973 13.102,12.204 13.102,13.317 C13.102,14.300 12.395,14.709 11.447,14.709 Z"/>
</g>
</symbol>


<symbol id='google' viewBox="0 0 32 32">
<defs>
<filter id="Filter_0">
    <feFlood flood-color="rgb(235, 235, 235)" flood-opacity="1" result="floodOut" />
    <feComposite operator="atop" in="floodOut" in2="SourceGraphic" result="compOut" />
    <feBlend mode="normal" in="compOut" in2="SourceGraphic" />
</filter>

</defs>
<g filter="url(#Filter_0)">
<path fill-rule="evenodd"  fill="rgb(255, 255, 255)"
 d="M15.999,32.9 C15.428,32.9 14.864,31.977 14.309,31.918 C16.884,30.662 18.245,28.483 18.245,26.300 C18.245,23.854 16.878,22.648 15.372,21.337 L14.141,20.344 C13.765,20.25 13.251,19.600 13.251,18.821 C13.251,18.41 13.765,17.544 14.210,17.84 C15.646,15.914 17.82,14.673 17.82,12.51 C17.82,9.356 15.440,7.938 14.654,7.265 L16.775,7.265 L18.964,5.989 L11.917,5.989 C10.70,5.989 7.745,6.272 5.794,7.938 C4.323,9.250 3.605,11.57 3.605,12.688 C3.605,15.453 5.657,18.253 9.283,18.253 C9.626,18.253 10.2,18.218 10.379,18.182 C10.207,18.608 10.36,18.962 10.36,19.565 C10.36,20.664 10.583,21.337 11.61,21.975 C9.523,22.82 6.649,22.258 4.528,23.605 C3.799,24.53 3.258,24.577 2.858,25.121 C1.60,22.533 0.0,19.394 0.0,16.4 C0.0,7.165 7.163,0.0 15.999,0.0 C24.836,0.0 31.999,7.165 31.999,16.4 C31.999,24.843 24.836,32.9 15.999,32.9 ZM26.906,8.999 L23.906,8.999 L23.906,5.999 L21.906,5.999 L21.906,8.999 L18.906,8.999 L18.906,10.999 L21.906,10.999 L21.906,13.999 L23.906,13.999 L23.906,10.999 L26.906,10.999 L26.906,8.999 ZM6.614,10.951 C6.614,10.30 6.785,9.72 7.368,8.328 C7.915,7.619 8.873,7.158 9.762,7.158 C12.602,7.158 14.73,11.128 14.73,13.680 C14.73,14.319 14.3,15.453 13.218,16.268 C12.670,16.835 11.745,17.261 10.891,17.261 C7.949,17.261 6.614,13.325 6.614,10.951 ZM7.846,23.535 C9.283,23.38 11.131,22.967 11.438,22.967 C11.780,22.967 11.952,22.967 12.225,23.3 C14.826,24.917 15.953,25.874 15.953,27.683 C15.953,29.658 14.534,31.163 11.864,31.450 C9.228,30.745 6.863,29.392 4.949,27.561 C4.937,27.435 4.904,27.316 4.904,27.186 C4.904,24.669 7.94,23.819 7.846,23.535 Z"/>
</g>
</symbol>


<symbol id='pin' viewBox="0 0 48 52">
<defs>
<filter id="Filter_0">
    <feFlood flood-color="rgb(159, 154, 207)" flood-opacity="1" result="floodOut" />
    <feComposite operator="atop" in="floodOut" in2="SourceGraphic" result="compOut" />
    <feBlend mode="normal" in="compOut" in2="SourceGraphic" />
</filter>
</defs>
<g filter="url(#Filter_0)">
<path fill-rule="evenodd"  fill="#9f9acf"
 d="M43.857,33.55 C41.584,36.759 35.682,40.455 28.802,43.326 C18.713,46.594 0.881,52.791 0.881,52.791 L0.881,23.869 C0.881,23.869 1.435,14.38 3.287,11.19 C9.755,0.479 24.80,-3.131 35.283,2.953 C46.486,9.38 50.325,22.516 43.857,33.55 ZM23.942,9.339 C17.569,9.339 12.402,14.200 12.402,20.196 C12.402,26.192 17.569,31.53 23.942,31.53 C30.315,31.53 35.481,26.192 35.481,20.196 C35.481,14.200 30.315,9.339 23.942,9.339 Z"/>
</g>
</symbol>



<symbol id='phone' viewBox="0 0 24 34">
	<path d="M22.507,0H9.175C7.9,0,6.87,1.034,6.87,2.309v27.07c0,1.271,1.03,2.306,2.305,2.306h13.332   c1.273,0,2.307-1.034,2.307-2.306V2.309C24.813,1.034,23.78,0,22.507,0z M23.085,25.672H8.599V3.895h14.486V25.672z M18.932,2.343   h-6.181V1.669h6.182L18.932,2.343L18.932,2.343z M21.577,2.035c0,0.326-0.266,0.59-0.591,0.59c-0.326,0-0.591-0.265-0.591-0.59   s0.265-0.59,0.591-0.59C21.312,1.444,21.577,1.709,21.577,2.035z M18.655,29.225h-5.629v-1.732h5.629V29.225z"/>
</symbol>

<symbol id='arrow' viewBox="0 0 36 21">

<path fill-rule="evenodd"  fill="rgb(230, 230, 230)"
 d="M35.491,20.876 C35.8,21.134 34.390,20.980 34.111,20.533 L17.999,2.319 L1.888,20.533 C1.609,20.980 0.991,21.134 0.507,20.876 C0.24,20.618 0.140,20.46 0.138,19.599 L17.61,0.467 C17.242,0.177 17.568,0.27 17.905,0.16 C17.937,0.11 17.967,0.12 17.999,0.10 C18.31,0.12 18.62,0.11 18.93,0.16 C18.431,0.27 18.756,0.177 18.938,0.467 L35.861,19.599 C36.140,20.46 35.975,20.618 35.491,20.876 Z"/>
</symbol>

<symbol id="icon-cheveron-outline-up" viewBox="0 0 20 20">
<path d="M0 10c0-5.523 4.477-10 10-10s10 4.477 10 10v0c0 5.523-4.477 10-10 10s-10-4.477-10-10v0zM10 18c4.418 0 8-3.582 8-8s-3.582-8-8-8v0c-4.418 0-8 3.582-8 8s3.582 8 8 8v0zM10.7 7.46l3.55 3.54-1.41 1.41-2.84-2.81-2.83 2.8-1.41-1.4 4.24-4.24 0.7 0.7z "></path>
</symbol>
</svg>

